<svg id="undraw_annotation_7das" xmlns="http://www.w3.org/2000/svg" width="394.828" height="236.989" viewBox="0 0 394.828 236.989">
  <path id="Path_33" data-name="Path 33" d="M612.026,720.543c-5.283,9.836-282.61,9.011-282.189,0C335.12,710.707,612.448,711.533,612.026,720.543Z" transform="translate(-235.12 -494.823)" fill="#d0cde1"/>
  <rect id="Rectangle_38" data-name="Rectangle 38" width="46.552" height="40.293" transform="translate(262.881 14.474)" fill="#e8e8e8"/>
  <rect id="Rectangle_39" data-name="Rectangle 39" width="133.396" height="110.707" transform="translate(105.23 25.819)" fill="#f1f1f1"/>
  <rect id="Rectangle_40" data-name="Rectangle 40" width="53.202" height="6.65" transform="translate(145.328 44.205)" fill="#fff"/>
  <rect id="Rectangle_41" data-name="Rectangle 41" width="36.968" height="3.912" transform="translate(123.421 59.852)" fill="#fff"/>
  <rect id="Rectangle_42" data-name="Rectangle 42" width="36.968" height="3.912" transform="translate(153.152 85.671)" fill="#fff"/>
  <rect id="Rectangle_43" data-name="Rectangle 43" width="36.968" height="3.912" transform="translate(182.882 59.852)" fill="#061a29"/>
  <rect id="Rectangle_44" data-name="Rectangle 44" width="33.642" height="1.811" transform="translate(269.14 37.163)" fill="#1a182d"/>
  <rect id="Rectangle_45" data-name="Rectangle 45" width="33.642" height="1.811" transform="translate(268.748 41.148)" fill="#1a182d"/>
  <rect id="Rectangle_46" data-name="Rectangle 46" width="33.642" height="1.811" transform="translate(269.14 45.132)" fill="#1a182d"/>
  <rect id="Rectangle_47" data-name="Rectangle 47" width="33.642" height="1.811" transform="translate(269.14 23.863)" fill="#1a182d"/>
  <rect id="Rectangle_48" data-name="Rectangle 48" width="33.642" height="1.811" transform="translate(268.748 27.847)" fill="#1a182d"/>
  <rect id="Rectangle_49" data-name="Rectangle 49" width="33.642" height="1.811" transform="translate(269.14 31.831)" fill="#1a182d"/>
  <rect id="Rectangle_50" data-name="Rectangle 50" width="46.552" height="40.293" transform="translate(276.181 27.775)" fill="#e8e8e8"/>
  <rect id="Rectangle_51" data-name="Rectangle 51" width="33.642" height="1.811" transform="translate(282.441 50.464)" fill="#1a182d"/>
  <rect id="Rectangle_52" data-name="Rectangle 52" width="33.642" height="1.811" transform="translate(282.049 54.448)" fill="#1a182d"/>
  <rect id="Rectangle_53" data-name="Rectangle 53" width="33.642" height="1.811" transform="translate(282.441 58.433)" fill="#1a182d"/>
  <rect id="Rectangle_54" data-name="Rectangle 54" width="33.642" height="1.811" transform="translate(282.441 37.163)" fill="#1a182d"/>
  <rect id="Rectangle_55" data-name="Rectangle 55" width="33.642" height="1.811" transform="translate(282.049 41.148)" fill="#1a182d"/>
  <rect id="Rectangle_56" data-name="Rectangle 56" width="33.642" height="1.811" transform="translate(282.441 45.132)" fill="#1a182d"/>
  <rect id="Rectangle_57" data-name="Rectangle 57" width="46.552" height="40.293" transform="translate(0 43.422)" fill="#e8e8e8"/>
  <rect id="Rectangle_58" data-name="Rectangle 58" width="33.642" height="1.811" transform="translate(6.259 66.111)" fill="#1a182d"/>
  <rect id="Rectangle_59" data-name="Rectangle 59" width="33.642" height="1.811" transform="translate(5.868 70.096)" fill="#1a182d"/>
  <rect id="Rectangle_60" data-name="Rectangle 60" width="33.642" height="1.811" transform="translate(6.259 74.08)" fill="#1a182d"/>
  <rect id="Rectangle_61" data-name="Rectangle 61" width="33.642" height="1.811" transform="translate(6.259 52.811)" fill="#1a182d"/>
  <rect id="Rectangle_62" data-name="Rectangle 62" width="33.642" height="1.811" transform="translate(5.868 56.795)" fill="#1a182d"/>
  <rect id="Rectangle_63" data-name="Rectangle 63" width="33.642" height="1.811" transform="translate(6.259 60.78)" fill="#1a182d"/>
  <rect id="Rectangle_64" data-name="Rectangle 64" width="97.016" height="3.912" transform="translate(123.421 72.762)" fill="#fff"/>
  <rect id="Rectangle_65" data-name="Rectangle 65" width="21.711" height="3.912" transform="translate(123.421 85.671)" fill="#061a29"/>
  <rect id="Rectangle_66" data-name="Rectangle 66" width="21.711" height="3.912" transform="translate(123.421 111.49)" fill="#fff"/>
  <rect id="Rectangle_67" data-name="Rectangle 67" width="21.711" height="3.912" transform="translate(198.139 85.671)" fill="#fff"/>
  <rect id="Rectangle_68" data-name="Rectangle 68" width="97.016" height="3.912" transform="translate(123.421 98.58)" fill="#fff"/>
  <rect id="Rectangle_69" data-name="Rectangle 69" width="56.918" height="3.912" transform="translate(163.518 111.49)" fill="#fff"/>
  <path id="Path_34" data-name="Path 34" d="M554.484,72.252l-.621-.476,42.366-55.312H638.28v.783H596.615Z" transform="translate(-343.321 -10.206)" fill="#2f2e41"/>
  <path id="Path_35" data-name="Path 35" d="M161.432,143.421,99.342,90.313H57.629v-.782h42l62.309,53.3Z" transform="translate(-35.722 -55.497)" fill="#2f2e41"/>
  <circle id="Ellipse_20" data-name="Ellipse 20" cx="6.259" cy="6.259" r="6.259" transform="translate(288.7 0)" fill="#ff8d41"/>
  <circle id="Ellipse_21" data-name="Ellipse 21" cx="6.259" cy="6.259" r="6.259" transform="translate(15.648 28.166)" fill="#ff8d41"/>
  <path id="Path_36" data-name="Path 36" d="M958.764,636.074s9.127-30.709-25.582-48.194Z" transform="translate(-609.114 -416.973)" fill="#d0cde1"/>
  <path id="Path_37" data-name="Path 37" d="M1003.47,662.571s3.618-30.309,44.042-32.209Z" transform="translate(-652.684 -443.306)" fill="#d0cde1"/>
  <path id="Path_38" data-name="Path 38" d="M499.439,563.025,490,562.4l3.145,14.152,10.692-4.4Z" transform="translate(-303.737 -348.611)" fill="#ffb9b9"/>
  <path id="Path_39" data-name="Path 39" d="M645.409,459.685,623.4,438.3l-12.579,9.749-24.845,29.876,2.83,4.4,30.191-20.441,20.441,26.731,19.5-9.749Z" transform="translate(-363.224 -271.688)" fill="#2f2e41"/>
  <path id="Path_40" data-name="Path 40" d="M645.409,459.685,623.4,438.3l-12.579,9.749-24.845,29.876,2.83,4.4,30.191-20.441,20.441,26.731,19.5-9.749Z" transform="translate(-363.224 -271.688)" fill="#061a29" opacity="0.1"/>
  <path id="Path_41" data-name="Path 41" d="M759.764,646.976l-2.83,2.2-22.958-7.862-5.346-2.2-10.693,2.2s0-8.806,10.064-8.491l10.378,2.516,12.265.943Z" transform="translate(-475.692 -444.827)" fill="#ffb9b9"/>
  <path id="Path_42" data-name="Path 42" d="M621.071,537.622l-6.919,4.4h-8.177l-38.053-14.152-55.664,10.064-1.573-11.95,50.947-22.329,44.657,14.781Z" transform="translate(-316.557 -312.2)" fill="#061a29"/>
  <path id="Path_43" data-name="Path 43" d="M752.4,534.471l-4.717.943-1.028-1.2a6.354,6.354,0,0,1-.859-6.977h0l13.208-17.3s3.774-8.491,9.749-5.032-5.032,9.12-5.032,9.12l-6.6,10.378.629,5.346Z" transform="translate(-492.546 -365.028)" fill="#ffb9b9"/>
  <circle id="Ellipse_22" data-name="Ellipse 22" cx="12.265" cy="12.265" r="12.265" transform="translate(277.468 124.471)" fill="#ffb9b9"/>
  <path id="Path_44" data-name="Path 44" d="M828.382,516.4l5.661,13.523,13.523-5.661s-4.4-10.693-4.4-11.007S828.382,516.4,828.382,516.4Z" transform="translate(-544.153 -370.705)" fill="#ffb9b9"/>
  <path id="Path_45" data-name="Path 45" d="M823.314,570.694a70.47,70.47,0,0,1-3.456,21.8l-.919,2.826-4.4,20.127-4.717,1.258-3.459-4.4-6.919-5.032-5.032-8.177-4.315-7.189-1.346-2.245-4.717-23.586L766.105,556l-5.975-.944,1.258-3.459,5.346-7.233,5.346-.629,1.572-1.258,1.258.629,5.032-2.83,1.572.629,9.2.855,5.585-1.17,8.032-4.312,3.29.538,11.321,9.435A70.412,70.412,0,0,1,823.314,570.694Z" transform="translate(-501.846 -384.989)" fill="#ff8d41"/>
  <path id="Path_46" data-name="Path 46" d="M540.861,685.326s2.817-4.774,1.627-5.331-6.242-2.779-6.242-2.779l-7.41-2.456s-10.692-15.89-10.926-2.072,7.785,17.14,7.785,17.14,7.152,15.393,11.2,12.938S545,691.979,545,691.979,537.7,688.052,540.861,685.326Z" transform="translate(-351.698 -466.042)" fill="#061a29"/>
  <path id="Path_47" data-name="Path 47" d="M779.722,456.7l-11.95,7.862L749.934,480.65l-1.346-2.245-3.774-18.869h.943l9.749-17.926Z" transform="translate(-461.685 -273.739)" opacity="0.1"/>
  <path id="Path_48" data-name="Path 48" d="M739.61,436.645l-9.749,17.926H726.4l-2.2,6.29-5.032,1.258L732.691,476.9l19.184-17.3,11.95-7.862Z" transform="translate(-445.789 -270.662)" fill="#ff8d41"/>
  <path id="Path_49" data-name="Path 49" d="M810.82,458.309l-1.329.511a1.855,1.855,0,0,1-.474-2.608l-2.456-.115a18.544,18.544,0,0,1,27.683-2.231c.112-.385,1.331.364,1.828,1.124.167-.627,1.31,2.4,1.714,4.544.187-.713.907.438.276,1.542.4-.058.58.963.271,1.533.437-.205.363,1.015-.11,1.83.623-.055-4.917,8.544-7.16,13.569-.651-2.993-1.384-6.145-3.484-8.374-.357-.379-.748-.724-1.138-1.069l-2.111-1.864c-2.455-2.167-4.688-4.841-7.958-5.651-2.247-.557-3.669-.682-2.444-3.215-1.107.462-2.14,1.148-3.256,1.577C810.686,459.059,810.842,458.663,810.82,458.309Z" transform="translate(-530.627 -330.692)" fill="#2f2e41"/>
  <circle id="Ellipse_23" data-name="Ellipse 23" cx="2.201" cy="2.201" r="2.201" transform="translate(293.664 135.95)" fill="#ffb9b9"/>
</svg>
