<svg xmlns="http://www.w3.org/2000/svg" width="271.418" height="225.606" viewBox="0 0 271.418 225.606">
  <g id="undraw_content_structure_79gj" transform="translate(0 -31.2)">
    <rect id="Rectangle_70" data-name="Rectangle 70" width="43.809" height="38.898" transform="translate(5.334 42.005)" fill="#e8e8e8"/>
    <rect id="Rectangle_71" data-name="Rectangle 71" width="43.809" height="38.898" transform="translate(5.334 112.02)" fill="#e8e8e8"/>
    <rect id="Rectangle_72" data-name="Rectangle 72" width="43.809" height="38.898" transform="translate(146.099 42.005)" fill="#e8e8e8"/>
    <rect id="Rectangle_73" data-name="Rectangle 73" width="43.809" height="38.898" transform="translate(146.099 112.02)" fill="#e8e8e8"/>
    <rect id="Rectangle_74" data-name="Rectangle 74" width="43.809" height="38.898" transform="translate(76.214 42.005)" fill="#e8e8e8"/>
    <rect id="Rectangle_75" data-name="Rectangle 75" width="43.809" height="38.898" transform="translate(76.214 112.02)" fill="#e8e8e8"/>
    <path id="Path_50" data-name="Path 50" d="M451.667,255l-28.3-.641c3.389-10.967,4.12-21.408.7-31.03l28.3.641A61.967,61.967,0,0,0,451.667,255Z" transform="translate(-339.2 -177.598)" fill="#1d76bc"/>
    <rect id="Rectangle_76" data-name="Rectangle 76" width="0.682" height="14.666" transform="translate(91.544 52.194) rotate(-88.703)" fill="#fff"/>
    <rect id="Rectangle_77" data-name="Rectangle 77" width="0.682" height="14.666" transform="translate(91.482 54.922) rotate(-88.703)" fill="#fff"/>
    <rect id="Rectangle_78" data-name="Rectangle 78" width="0.682" height="14.666" transform="translate(91.42 57.65) rotate(-88.703)" fill="#fff"/>
    <rect id="Rectangle_79" data-name="Rectangle 79" width="0.682" height="14.666" transform="translate(91.359 60.378) rotate(-88.703)" fill="#fff"/>
    <rect id="Rectangle_80" data-name="Rectangle 80" width="0.682" height="14.666" transform="translate(91.297 63.106) rotate(-88.703)" fill="#fff"/>
    <rect id="Rectangle_81" data-name="Rectangle 81" width="0.682" height="14.666" transform="translate(91.235 65.834) rotate(-88.703)" fill="#fff"/>
    <rect id="Rectangle_82" data-name="Rectangle 82" width="0.682" height="14.666" transform="translate(91.173 68.562) rotate(-88.703)" fill="#fff"/>
    <rect id="Rectangle_83" data-name="Rectangle 83" width="0.682" height="14.666" transform="translate(91.111 71.29) rotate(-88.703)" fill="#fff"/>
    <circle id="Ellipse_24" data-name="Ellipse 24" cx="8.212" cy="8.212" r="8.212" transform="translate(112.371 31.2)" fill="#1d76bc"/>
    <path id="Path_51" data-name="Path 51" d="M323.6,104.338l-3.11-3.8.489-.4,2.575,3.147,4.5-6.6.522.356Z" transform="translate(-203.313 -60.925)" fill="#fff"/>
    <ellipse id="Ellipse_25" data-name="Ellipse 25" cx="135.709" cy="6.915" rx="135.709" ry="6.915" transform="translate(0 242.975)" fill="#e8e8e8"/>
    <path id="Path_53" data-name="Path 53" d="M473.9,591.857l-23.823-15.293c8.607-7.6,14.671-16.126,16.767-26.119l23.823,15.293A61.966,61.966,0,0,0,473.9,591.857Z" transform="translate(-356.145 -385.113)" fill="#1d76bc"/>
    <rect id="Rectangle_84" data-name="Rectangle 84" width="0.682" height="14.666" transform="translate(113.03 174.328) rotate(-57.302)" fill="#fff"/>
    <rect id="Rectangle_85" data-name="Rectangle 85" width="0.682" height="14.666" transform="translate(111.557 176.625) rotate(-57.302)" fill="#fff"/>
    <rect id="Rectangle_86" data-name="Rectangle 86" width="0.682" height="14.666" transform="translate(110.083 178.921) rotate(-57.302)" fill="#fff"/>
    <rect id="Rectangle_87" data-name="Rectangle 87" width="0.682" height="14.666" transform="translate(108.609 181.217) rotate(-57.302)" fill="#fff"/>
    <rect id="Rectangle_88" data-name="Rectangle 88" width="0.682" height="14.666" transform="translate(107.135 183.513) rotate(-57.302)" fill="#fff"/>
    <rect id="Rectangle_89" data-name="Rectangle 89" width="0.682" height="14.666" transform="translate(105.66 185.809) rotate(-57.302)" fill="#fff"/>
    <rect id="Rectangle_90" data-name="Rectangle 90" width="0.682" height="14.666" transform="translate(104.187 188.105) rotate(-57.302)" fill="#fff"/>
    <rect id="Rectangle_91" data-name="Rectangle 91" width="0.682" height="14.666" transform="translate(102.713 190.402) rotate(-57.302)" fill="#fff"/>
    <path id="Path_54" data-name="Path 54" d="M376.664,774.334l5.95-11.532c10.98,1.806,12.919,1.437,22.514.191l2.551,12.516A138.275,138.275,0,0,0,376.664,774.334Z" transform="translate(-309.573 -519.827)" fill="#1d76bc"/>
    <path id="Path_55" data-name="Path 55" d="M251.068,678.034l-.186-6.484.682.026.187,6.484Z" transform="translate(-159.154 -425.606)" fill="#fff"/>
    <path id="Path_56" data-name="Path 56" d="M243.611,677.751l-.187-6.484.682.026.186,6.484Z" transform="translate(-154.422 -425.427)" fill="#fff"/>
    <path id="Path_57" data-name="Path 57" d="M236.153,677.469l-.186-6.484.682.026.187,6.484Z" transform="translate(-149.692 -425.248)" fill="#fff"/>
    <rect id="Rectangle_92" data-name="Rectangle 92" width="6.489" height="0.682" transform="translate(83.735 252.12) rotate(-87.83)" fill="#fff"/>
    <rect id="Rectangle_93" data-name="Rectangle 93" width="6.489" height="0.682" transform="translate(81.008 252.016) rotate(-87.83)" fill="#fff"/>
    <path id="Path_58" data-name="Path 58" d="M214.1,676.621l.678-6.484.682.026-.678,6.484Z" transform="translate(-135.823 -424.71)" fill="#fff"/>
    <path id="Path_59" data-name="Path 59" d="M206.647,676.339l.678-6.484.682.026-.678,6.484Z" transform="translate(-131.092 -424.531)" fill="#fff"/>
    <path id="Path_60" data-name="Path 60" d="M199.19,676.056l.678-6.484.682.026-.678,6.484Z" transform="translate(-126.361 -424.351)" fill="#fff"/>
    <path id="Path_61" data-name="Path 61" d="M492.8,519.886l.432,4.322s-3.458,12.534,1.729,11.669,3.458-11.669,3.458-11.669l-.865-3.458Z" transform="translate(-382.803 -365.726)" fill="#ffb8b8"/>
    <path id="Path_62" data-name="Path 62" d="M635.084,521.068l-.432,4.322s3.458,12.534-1.729,11.669-3.458-11.669-3.458-11.669l.864-3.458Z" transform="translate(-469.769 -366.476)" fill="#ffb8b8"/>
    <path id="Path_63" data-name="Path 63" d="M332.278,643.018l-1.3,9.076,9.076-.864-1.3-9.076Z" transform="translate(-209.967 -406.958)" fill="#ffb8b8"/>
    <path id="Path_64" data-name="Path 64" d="M452.24,643.018l1.3,9.076-9.076-.864,1.3-9.076Z" transform="translate(-281.955 -406.958)" fill="#ffb8b8"/>
    <path id="Path_65" data-name="Path 65" d="M521.892,504.066s-2.161.864,0,33.711l.864,53.592H531.4l3.457-47.541,4.754-28.957,13.4,37.6,10.8,40.194,8.644-2.161-11.237-51.431s2.161-29.821-5.619-35.008S521.892,504.066,521.892,504.066Z" transform="translate(-401.093 -354.228)" fill="#2f2e41"/>
    <path id="Path_66" data-name="Path 66" d="M506.933,753.86s-.18-3.931-.954-4.126-6.393,4.558-6.393,4.558-6.051-.864-5.618,5.619,9.076,4.322,9.076,4.322,1.729,3.89,5.186,3.89,8.644,0,9.076-2.593-2.161-14.262-3.025-13.83-3.025,0-3.025,0Z" transform="translate(-383.974 -511.533)" fill="#2f2e41"/>
    <path id="Path_67" data-name="Path 67" d="M639.051,753.86s.18-3.931.954-4.126,6.393,4.558,6.393,4.558,6.051-.864,5.618,5.619-9.076,4.322-9.076,4.322-1.729,3.89-5.186,3.89-8.644,0-9.076-2.593,2.161-14.262,3.025-13.83,3.025,0,3.025,0Z" transform="translate(-469.415 -511.533)" fill="#2f2e41"/>
    <circle id="Ellipse_26" data-name="Ellipse 26" cx="8.212" cy="8.212" r="8.212" transform="translate(129.442 67.721)" fill="#ffb8b8"/>
    <path id="Path_68" data-name="Path 68" d="M567.029,309.476s.432,11.669,2.593,12.966-12.966,0-12.966,0l1.729-9.94Z" transform="translate(-423.756 -232.247)" fill="#ffb8b8"/>
    <path id="Path_69" data-name="Path 69" d="M544.931,337.6s-7.779-3.89-15.127-1.3a43.123,43.123,0,0,0-11.237,5.619l4.754,25.067s-9.076,32.847-6.483,33.711,33.279-2.593,36.3,0,3.025-3.025,3.025-3.025-4.322-10.8-3.458-19.881.864-12.1.864-12.1l4.754-20.313Z" transform="translate(-398.201 -248.698)" fill="#108286"/>
    <path id="Path_70" data-name="Path 70" d="M505.155,353.213h-3.025s-4.754,3.025-4.754,7.347-4.322,28.093-4.322,28.093l-2.593,26.8,7.347,1.3,6.483-35.44,4.754-9.508Z" transform="translate(-381.763 -259.993)" fill="#108286"/>
    <path id="Path_71" data-name="Path 71" d="M608.667,362.67h8.212s2.593,2.593,3.89,8.644,2.593,29.821,2.593,29.821l-.864,21.61h-6.483l-.865-28.093L610.828,376.5Z" transform="translate(-456.751 -265.992)" fill="#108286"/>
    <path id="Path_72" data-name="Path 72" d="M546.641,285.492l1.738,4.441c.712,1.82,1.528,3.767,3.2,4.783,2.062,1.254,4.815.643,6.809-.716a10.633,10.633,0,0,0-4.786-19.353l-.083,1.487-1.824-1.529a1.773,1.773,0,0,1-2.757.39,2.706,2.706,0,0,1-.872,2.966c-.981.935-3.787,2.058-3.671,3.729C544.471,282.8,546.189,284.336,546.641,285.492Z" transform="translate(-415.975 -210.126)" fill="#2f2e41"/>
  </g>
</svg>
