<svg id="undraw_fitness_stats_sht6" xmlns="http://www.w3.org/2000/svg" width="347.912" height="225.785" viewBox="0 0 347.912 225.785">
  <path id="Path_73" data-name="Path 73" d="M801.964,497.853l18.113-26.936L802,500.751l.038,3.031q-1.983.015-3.928-.066l.9-38.961-.025-.3.033-.058.086-3.682-19.836-28.8,19.813,26.044.07.778.679-29.437L782.7,399.442l17.182,24.687-.179-60.985v-.2l.006.2,1.137,48.065,15.615-19.524-15.564,23.665.341,26.33,14.369-25.7-14.316,29.569.19,14.641,20.9-35.8-20.833,40.9Z" transform="translate(-535.418 -283.991)" fill="#e6e6e6"/>
  <path id="Path_74" data-name="Path 74" d="M958.314,500.029l18.113-26.936-18.076,29.834.038,3.031q-1.984.015-3.928-.066l.9-38.961-.025-.3.033-.058.086-3.682-19.836-28.8,19.813,26.044.07.778.678-29.437-17.133-29.859,17.182,24.687-.179-60.985v-.2l.006.2,1.137,48.065,15.615-19.524-15.563,23.665.341,26.33,14.369-25.7-14.316,29.569.19,14.641,20.9-35.8-20.833,40.9Z" transform="translate(-630.81 -285.319)" fill="#e6e6e6"/>
  <rect id="Rectangle_94" data-name="Rectangle 94" width="108.391" height="146.611" transform="translate(35.869)" fill="#f1f1f1"/>
  <rect id="Rectangle_95" data-name="Rectangle 95" width="100.752" height="136.279" transform="translate(39.689 5.166)" fill="#fff"/>
  <path id="Path_75" data-name="Path 75" d="M360.822,227.93H286.879a2.26,2.26,0,1,1,0-4.521h73.943a2.26,2.26,0,0,1,0,4.521Z" transform="translate(-233.624 -198.861)" fill="#e6e6e6"/>
  <path id="Path_76" data-name="Path 76" d="M360.822,287.559H286.879a2.26,2.26,0,1,1,0-4.521h73.943a2.26,2.26,0,0,1,0,4.521Z" transform="translate(-233.624 -235.241)" fill="#e6e6e6"/>
  <path id="Path_77" data-name="Path 77" d="M360.822,347.188H286.879a2.26,2.26,0,1,1,0-4.521h73.943a2.26,2.26,0,0,1,0,4.521Z" transform="translate(-233.624 -271.622)" fill="#e6e6e6"/>
  <path id="Path_78" data-name="Path 78" d="M360.822,406.817H286.879a2.26,2.26,0,1,1,0-4.521h73.943a2.26,2.26,0,0,1,0,4.521Z" transform="translate(-233.624 -308.003)" fill="#e6e6e6"/>
  <path id="Path_79" data-name="Path 79" d="M360.822,466.446H286.879a2.26,2.26,0,1,1,0-4.521h73.943a2.26,2.26,0,0,1,0,4.521Z" transform="translate(-233.624 -344.383)" fill="#e6e6e6"/>
  <path id="Path_80" data-name="Path 80" d="M347.4,227.93h-61.35a2.26,2.26,0,1,1,0-4.521H347.4a2.26,2.26,0,0,1,0,4.521Z" transform="translate(-233.119 -198.861)" fill="#ff8d41"/>
  <path id="Path_81" data-name="Path 81" d="M328.35,287.559h-42.3a2.26,2.26,0,1,1,0-4.521h42.3a2.26,2.26,0,1,1,0,4.521Z" transform="translate(-233.119 -235.241)" fill="#009344"/>
  <path id="Path_82" data-name="Path 82" d="M305.1,347.188H286.051a2.26,2.26,0,1,1,0-4.521H305.1a2.26,2.26,0,1,1,0,4.521Z" transform="translate(-233.119 -271.622)" fill="#1d76bc"/>
  <path id="Path_83" data-name="Path 83" d="M353.213,406.817H286.051a2.26,2.26,0,1,1,0-4.521h67.162a2.26,2.26,0,1,1,0,4.521Z" transform="translate(-233.119 -308.003)" fill="#ff8d41"/>
  <path id="Path_84" data-name="Path 84" d="M338.36,466.446H286.051a2.26,2.26,0,1,1,0-4.521H338.36a2.26,2.26,0,0,1,0,4.521Z" transform="translate(-233.119 -344.383)" fill="#acacac"/>
  <rect id="Rectangle_96" data-name="Rectangle 96" width="346.216" height="0.78" transform="translate(0 219.793)" fill="#e8e8e8"/>
  <path id="Path_85" data-name="Path 85" d="M646.746,409.575s-2.451-17.971-6.535-13.07,0,12.253,0,12.253l3.268,4.084,3.267-2.451Z" transform="translate(-449.47 -303.953)" fill="#9f616a"/>
  <path id="Path_86" data-name="Path 86" d="M660.525,434.2s-8.169-8.986-9.8-7.352S644.188,429.3,645,432.57s17.971,13.887,17.971,13.887Z" transform="translate(-453.446 -322.863)" fill="#1d76bc"/>
  <path id="Path_87" data-name="Path 87" d="M660.525,434.2s-8.169-8.986-9.8-7.352S644.188,429.3,645,432.57s17.971,13.887,17.971,13.887Z" transform="translate(-453.446 -322.863)" opacity="0.1"/>
  <path id="Path_88" data-name="Path 88" d="M793.194,443.924v6.535s.817,14.7-4.084,13.887-2.451-13.07-2.451-13.07l.817-7.352Z" transform="translate(-539.554 -333.4)" fill="#9f616a"/>
  <path id="Path_89" data-name="Path 89" d="M773.806,565.443s7.352,11.436,9.8,12.253,15.521,8.169,17.154,15.52l11.436,14.7-5.718,7.352s-26.14-27.773-33.492-30.224-14.7-14.7-14.7-14.7Z" transform="translate(-522.617 -407.541)" fill="#9f616a"/>
  <path id="Path_90" data-name="Path 90" d="M628.474,517.254s-15.521,2.451-13.07,12.253,26.14,30.224,26.14,30.224l.817,4.9,8.985,1.634,4.084-4.084-.817-2.451s-9.8-8.985-10.619-12.253-9.8-16.337-13.887-17.154l5.718-3.267Z" transform="translate(-435.282 -378.14)" fill="#9f616a"/>
  <path id="Path_91" data-name="Path 91" d="M881.972,667.856s-3.267-4.9,1.634-4.084,8.169,1.634,8.169,4.9-4.084,26.14-8.986,24.506-.817-8.985-.817-8.985-2.451-6.535-4.084-7.352-1.634-4.9,0-4.9S882.789,669.49,881.972,667.856Z" transform="translate(-594.84 -467.477)" fill="#2f2e41"/>
  <path id="Path_92" data-name="Path 92" d="M680,625.456s0-4.084,3.268,0,4.9,7.352,1.634,9.8-14.7,8.169-14.7,8.169-12.253,2.451-10.619-3.267c0,0,8.169-4.084,8.169-7.352s0-8.985,2.451-7.352S680,627.907,680,625.456Z" transform="translate(-462.302 -443.049)" fill="#2f2e41"/>
  <path id="Path_93" data-name="Path 93" d="M684.25,471.161s11.436,1.634,10.619,17.971c0,0,14.7,14.7,10.619,19.6s-13.07,13.887-16.337,11.436-13.07-21.239-13.07-21.239-22.872,8.169-26.957,4.084-8.169-13.887-8.169-13.887l20.422-10.619Z" transform="translate(-451.032 -350.018)" fill="#061a29"/>
  <circle id="Ellipse_27" data-name="Ellipse 27" cx="9.802" cy="9.802" r="9.802" transform="translate(191.558 54.976)" fill="#9f616a"/>
  <path id="Path_94" data-name="Path 94" d="M676.362,328.69s5.718,8.986,7.352,9.8-11.436,8.986-11.436,8.986,0-10.619-4.084-13.07Z" transform="translate(-467.65 -263.094)" fill="#9f616a"/>
  <path id="Path_95" data-name="Path 95" d="M677.179,349.764s13.07-4.084,15.52,2.451,8.169,18.788,7.352,26.956-2.451,6.535,0,8.986,4.084.817,3.267,4.084-1.634,3.267-.817,4.9-9.8,7.352-18.788,8.169l-8.986.817s0-14.7-1.634-17.971-4.9-9.8-4.9-12.253V369.42a24.8,24.8,0,0,1,3.267-12.3h0S676.362,349.764,677.179,349.764Z" transform="translate(-467.65 -275.183)" fill="#1d76bc"/>
  <path id="Path_96" data-name="Path 96" d="M705.194,360.117s30.224,2.451,33.492,10.619,4.9,24.506,1.634,24.506-7.352,1.634-8.169,0-4.084-17.971-4.9-17.971-25.323-2.451-25.323-2.451S691.307,361.751,705.194,360.117Z" transform="translate(-485.862 -282.268)" fill="#1d76bc"/>
  <path id="Path_97" data-name="Path 97" d="M647.894,306.718s-2.6-4.521-5.853-.594-8.541-3.289-7.729-4.829,3.68.069,8.594-1.537,14.381-4.879,15.966,5.8-2.19,9.556-2.19,9.556-1.731-9.46-3.295-6.743l-1.564,2.717-1.357.334Z" transform="translate(-446.927 -244.37)" fill="#2f2e41"/>
</svg>
