<svg xmlns="http://www.w3.org/2000/svg" xmlns:xlink="http://www.w3.org/1999/xlink" width="1392.135" height="1606.852" viewBox="0 0 1392.135 1606.852">
  <defs>
    <filter id="Path_11" x="0" y="0" width="1392.135" height="1606.852" filterUnits="userSpaceOnUse">
      <feOffset dx="-1" dy="-3" input="SourceAlpha"/>
      <feGaussianBlur stdDeviation="18.5" result="blur"/>
      <feFlood flood-color="#0f0f0f" flood-opacity="0.161"/>
      <feComposite operator="in" in2="blur"/>
      <feComposite in="SourceGraphic"/>
    </filter>
  </defs>
  <g id="Group_112" data-name="Group 112" transform="translate(59.5 -782.53)">
    <g transform="matrix(1, 0, 0, 1, -59.5, 782.53)" filter="url(#Path_11)">
      <path id="Path_11-2" data-name="Path 11" d="M.576,102.185S391.823,5.477,406.939,3.8s874.2,98.388,874.2,98.388L1280,1499.628H0Z" transform="translate(56.5 54.72)" fill="#fff"/>
    </g>
    <g id="Group_73" data-name="Group 73" transform="matrix(0.94, -0.342, 0.342, 0.94, -468.097, 857.447)">
      <circle id="Ellipse_11" data-name="Ellipse 11" cx="6" cy="6" r="6" transform="translate(601 267)" fill="#acacac"/>
      <circle id="Ellipse_12" data-name="Ellipse 12" cx="6" cy="6" r="6" transform="translate(627 271)" fill="#acacac"/>
      <ellipse id="Ellipse_15" data-name="Ellipse 15" cx="6" cy="5.5" rx="6" ry="5.5" transform="translate(677 277)" fill="#acacac"/>
      <ellipse id="Ellipse_17" data-name="Ellipse 17" cx="6" cy="5.5" rx="6" ry="5.5" transform="translate(728 283)" fill="#acacac"/>
      <circle id="Ellipse_13" data-name="Ellipse 13" cx="6" cy="6" r="6" transform="translate(652 274)" fill="#acacac"/>
      <circle id="Ellipse_14" data-name="Ellipse 14" cx="6" cy="6" r="6" transform="translate(702 279)" fill="#acacac"/>
      <circle id="Ellipse_16" data-name="Ellipse 16" cx="6" cy="6" r="6" transform="translate(753 286)" fill="#acacac"/>
      <path id="Path_23" data-name="Path 23" d="M3156.634,120.511s3.846-4.244,4.309-8.257c.546-5.023-.111-10.382-4.309-12.24-9.581-3.866-14.791,13.169-14.791,21.513.168,20.336,12.126,15.875,15.656,13.858" transform="translate(-2545 137)" fill="none" stroke="#707070" stroke-width="3"/>
      <path id="Path_24" data-name="Path 24" d="M3156.134,121.135a15.913,15.913,0,0,0,4.711-10.261c.33-4.729-2.021-10.19-5.493-11.727-6.083-2.455-10.758,4.1-12.762,11.727a46.43,46.43,0,0,0-1.3,11.064c.168,20.336,12.074,14.425,15.6,12.408" transform="translate(-2518.954 139.54)" fill="none" stroke="#707070" stroke-width="3"/>
      <path id="Path_27" data-name="Path 27" d="M3156.112,121.009a15.346,15.346,0,0,0,4.733-10.135c.33-4.729-2.021-10.19-5.493-11.727-6.083-2.455-10.758,4.1-12.762,11.727a46.43,46.43,0,0,0-1.3,11.064c.168,20.336,12.074,14.425,15.6,12.408" transform="translate(-2469.273 145.385)" fill="none" stroke="#707070" stroke-width="3"/>
      <path id="Path_29" data-name="Path 29" d="M3156.134,121.083a15.689,15.689,0,0,0,4.712-10.209c.33-4.729-2.021-10.19-5.493-11.727-6.083-2.455-10.758,4.1-12.762,11.727a46.43,46.43,0,0,0-1.3,11.064c.168,20.336,12.074,14.425,15.6,12.408" transform="translate(-2418.129 151.23)" fill="none" stroke="#707070" stroke-width="3"/>
      <path id="Path_25" data-name="Path 25" d="M3155.772,120.821a14.206,14.206,0,0,0,5.073-9.947c.33-4.729-2.021-10.19-5.493-11.727-6.083-2.455-10.758,4.1-12.762,11.727a46.43,46.43,0,0,0-1.3,11.064c.168,20.336,12.074,14.425,15.6,12.408" transform="translate(-2494.114 142.463)" fill="none" stroke="#707070" stroke-width="3"/>
      <path id="Path_26" data-name="Path 26" d="M3156.151,121a15.35,15.35,0,0,0,4.694-10.122c.33-4.729-2.021-10.19-5.493-11.727-6.083-2.455-10.758,4.1-12.762,11.727a46.43,46.43,0,0,0-1.3,11.064c.168,20.336,12.074,14.425,15.6,12.408" transform="translate(-2444.432 148.308)" fill="none" stroke="#707070" stroke-width="3"/>
      <path id="Path_28" data-name="Path 28" d="M3156.273,121.27a16.757,16.757,0,0,0,4.573-10.4c.33-4.729-2.021-10.19-5.493-11.727-6.083-2.455-10.758,4.1-12.762,11.727a46.43,46.43,0,0,0-1.3,11.064c.168,20.336,12.074,14.425,15.6,12.408" transform="translate(-2393.289 154.153)" fill="none" stroke="#707070" stroke-width="3"/>
    </g>
  </g>
</svg>
